<?xml version="1.0" encoding="UTF-8"?>
<svg version="1.1" xmlns="http://www.w3.org/2000/svg" width="256" height="256">
<path d="M0 0 C84.48 0 168.96 0 256 0 C256 84.48 256 168.96 256 256 C171.52 256 87.04 256 0 256 C0 171.52 0 87.04 0 0 Z " fill="#2C9DFF" transform="translate(0,0)"/>
<path d="M0 0 C4.14055177 -0.62108277 6.5357147 0.02562141 9.875 2.375 C19.47972396 10.20175025 27.66387597 21.54486684 29 34 C29.52207031 33.09121094 30.04414062 32.18242188 30.58203125 31.24609375 C36.14716667 21.69762781 42.32153768 12.80059054 49 4 C54.242408 7.54083842 57.24067789 12.32391154 60.6875 17.5 C61.26822266 18.35464844 61.84894531 19.20929688 62.44726562 20.08984375 C69.31816281 30.27306941 69.31816281 30.27306941 69 36 C69.66 35.67 70.32 35.34 71 35 C71.3934649 33.08128536 71.3934649 33.08128536 71.625 30.75 C73.56100102 20.17761941 81.20037485 10.1924687 89 3 C92.91488322 0.3236215 95.23720781 -0.33228783 100 0 C99.690625 1.03125 99.38125 2.0625 99.0625 3.125 C98.07653001 6.96758166 97.84029413 10.60333447 97.6875 14.5625 C96.63054121 31.54673427 89.12741307 43.47449898 77 55 C75.97561597 56.01727025 74.9539925 57.03734421 73.9375 58.0625 C73.298125 58.701875 72.65875 59.34125 72 60 C77.6418819 58.50207587 81.92243269 55.67963313 86.6875 52.4375 C87.48260986 51.9010083 88.27771973 51.3645166 89.09692383 50.81176758 C95.37087558 46.53033571 101.29900445 42.02796136 107 37 C107.639375 36.48953125 108.27875 35.9790625 108.9375 35.453125 C115.40090955 29.85535066 118.48115374 21.61350372 122 14 C124.94686486 15.0161603 125.96555338 15.94833008 127.71875 18.578125 C129.29039591 22.77556955 129.5358898 26.3038601 129.5 30.75 C129.49572998 31.54623779 129.49145996 32.34247559 129.48706055 33.1628418 C129.25248563 41.29670636 126.80324026 46.69361405 121.5625 52.875 C113.63618591 59.44804095 106.26414506 62.2712801 96.25 63.6875 C95.40050781 63.81705078 94.55101562 63.94660156 93.67578125 64.08007812 C90.40474364 64.56840838 87.31280675 65 84 65 C84.04640625 65.64066406 84.0928125 66.28132813 84.140625 66.94140625 C84.40589289 73.29836172 83.8812082 76.8931471 80 82 C76.52176178 85.22979263 73.7089466 86.30771609 69.0625 86.625 C64.43780144 86.40279226 61.82202814 85.2362884 58.5390625 82 C55.71532142 78.33056996 53.81780906 74.23876214 52 70 C50.68 70 49.36 70 48 70 C47.62488281 70.74765625 47.24976562 71.4953125 46.86328125 72.265625 C43.72424008 78.30650019 41.27021529 82.86489235 35 86 C30.41201528 86.55973414 26.90023771 86.42464043 22.6875 84.4375 C17.19347739 79.45454926 15.60596044 74.90841603 15.078125 67.72265625 C15.05234375 67.15417969 15.0265625 66.58570313 15 66 C13.85337891 65.87044922 13.85337891 65.87044922 12.68359375 65.73828125 C0.12955698 64.09160254 -14.82155001 61.15330122 -23.58203125 51.203125 C-28.41641902 44.68297089 -29.38561905 40.15896195 -29.4375 32.25 C-29.47037109 31.38117188 -29.50324219 30.51234375 -29.53710938 29.6171875 C-29.58872306 23.36724002 -28.30805465 18.70029655 -24 14 C-23.34 14 -22.68 14 -22 14 C-21.53851563 15.03898437 -21.07703125 16.07796875 -20.6015625 17.1484375 C-12.03417158 35.75881382 4.84895978 49.60524049 23 59 C25.68588601 59.69264724 25.68588601 59.69264724 28 60 C25.50054502 57.46896346 22.98672577 54.98795921 20.3515625 52.59765625 C7.78785115 40.91592464 3.37743356 28.0297435 2.28515625 11.109375 C1.92893905 7.22514361 1.09863664 3.73536457 0 0 Z " fill="#FBFDFF" transform="translate(78,95)"/>
<path d="M0 0 C4.30054013 1.49499589 6.07011483 4.65272261 8.3125 8.375 C8.68439453 8.9525 9.05628906 9.53 9.43945312 10.125 C12.07929629 14.43133633 12.07929629 14.43133633 11.72363281 16.98193359 C10.98955733 19.02912251 10.12658174 20.63843904 8.93359375 22.453125 C8.53076172 23.071875 8.12792969 23.690625 7.71289062 24.328125 C7.29201172 24.96234375 6.87113281 25.5965625 6.4375 26.25 C6.01275391 26.8996875 5.58800781 27.549375 5.15039062 28.21875 C4.1052694 29.81578918 3.05330163 31.4083442 2 33 C0.29296875 32.88671875 0.29296875 32.88671875 -2 32 C-3.73611334 29.96043156 -5.2082352 28.02286767 -6.6875 25.8125 C-7.09033203 25.24724609 -7.49316406 24.68199219 -7.90820312 24.09960938 C-10.40754839 20.44478791 -12.20952582 17.47570436 -12 13 C-10.34966085 10.37140035 -8.27058281 8.29142087 -6.0625 6.125 C-5.48564453 5.53203125 -4.90878906 4.9390625 -4.31445312 4.328125 C-2.89176622 2.87016487 -1.44785351 1.43297102 0 0 Z " fill="#F9FCFF" transform="translate(146,85)"/>
<path d="M0 0 C3.95854579 1.59454304 6.40877588 4.17398545 9.3125 7.25 C10.66794922 8.64992188 10.66794922 8.64992188 12.05078125 10.078125 C14 13 14 13 14.0625 15.93359375 C12.78131805 19.63112253 10.94010941 22.65163848 8.6875 25.8125 C8.29626953 26.39708984 7.90503906 26.98167969 7.50195312 27.58398438 C4.57053181 31.77936845 4.57053181 31.77936845 1.70703125 32.88671875 C0.86205078 32.94279297 0.86205078 32.94279297 0 33 C-0.47050781 32.32453125 -0.94101563 31.6490625 -1.42578125 30.953125 C-2.04839844 30.06109375 -2.67101562 29.1690625 -3.3125 28.25 C-3.92738281 27.36828125 -4.54226562 26.4865625 -5.17578125 25.578125 C-6.89927032 23.02704353 -6.89927032 23.02704353 -8.79296875 21.046875 C-10 19 -10 19 -9.90234375 16.109375 C-8.90731214 12.68060807 -7.53524482 10.21937058 -5.5625 7.25 C-4.94503906 6.30640625 -4.32757813 5.3628125 -3.69140625 4.390625 C-2 2 -2 2 0 0 Z " fill="#F9FCFF" transform="translate(108,85)"/>
<path d="M0 0 C4.13616818 1.90137579 7.32025532 4.28677017 10 8 C10.14963372 11.21712508 9.52750313 12.36260038 7.5 14.8125 C3.69357445 16.62055214 0.1339428 16.67384782 -4 16 C-6.625 14.375 -6.625 14.375 -8 12 C-8.1875 9.125 -8.1875 9.125 -7 6 C-4.84685318 3.74432237 -2.50827796 1.84682607 0 0 Z " fill="#F6FAFF" transform="translate(127,81)"/>
<path d="M0 0 C-0.73471024 4.30839789 -1.34231712 6.37397126 -5 9 C-11.3758819 10.77688512 -11.3758819 10.77688512 -15.07421875 9.0078125 C-16.88316197 7.76760396 -18.49392386 6.59549941 -20 5 C-20 4.34 -20 3.68 -20 3 C-13.45841601 -0.65111665 -7.36120371 -0.29887594 0 0 Z " fill="#3BA3FF" transform="translate(157,160)"/>
<path d="M0 0 C0.66 0.99 1.32 1.98 2 3 C1.484375 3.37125 0.96875 3.7425 0.4375 4.125 C-1.25689137 5.9536407 -1.25689137 5.9536407 -1.0625 8.625 C0.42610716 13.35351687 3.10414558 17.01487924 6 21 C5.01 21.66 4.02 22.32 3 23 C2.31292969 21.989375 1.62585938 20.97875 0.91796875 19.9375 C0.00834028 18.62463417 -0.9018449 17.31215393 -1.8125 16 C-2.49022461 14.99839844 -2.49022461 14.99839844 -3.18164062 13.9765625 C-4.37950812 12.26282507 -5.68400422 10.62478849 -7 9 C-7.99 9 -8.98 9 -10 9 C-11.70060743 11.13824216 -13.20205658 13.22089861 -14.6875 15.5 C-15.10322266 16.12003906 -15.51894531 16.74007812 -15.94726562 17.37890625 C-16.97403506 18.91315943 -17.98822225 20.45581929 -19 22 C-19.99 21.34 -20.98 20.68 -22 20 C-21.60167969 19.50371094 -21.20335938 19.00742188 -20.79296875 18.49609375 C-17.40115025 14.14697367 -14.93684016 10.1649071 -13 5 C-12.09507813 4.96132812 -12.09507813 4.96132812 -11.171875 4.921875 C-5.89464661 4.59668017 -5.89464661 4.59668017 -1.4375 1.9375 C-0.963125 1.298125 -0.48875 0.65875 0 0 Z " fill="#3EA5FF" transform="translate(136,92)"/>
<path d="M0 0 C7.12600133 -0.35368021 12.47059106 0.04328652 19 3 C17.98949988 5.66404576 17.02766415 6.97707828 14.8125 8.8125 C11.01834462 10.41447672 8.94131902 10.12609115 5 9 C2.0625 6.6875 2.0625 6.6875 0 4 C0 2.68 0 1.36 0 0 Z " fill="#36A1FF" transform="translate(99,160)"/>
<path d="M0 0 C0.66 0.33 1.32 0.66 2 1 C1.45773019 4.79588866 -0.20127563 6.47211993 -3 9 C-3.66 8.34 -4.32 7.68 -5 7 C-3.35 4.69 -1.7 2.38 0 0 Z " fill="#48A9FF" transform="translate(119,105)"/>
</svg>
