<?xml version="1.0" encoding="UTF-8"?>
<svg version="1.1" xmlns="http://www.w3.org/2000/svg" width="48" height="48">
<path d="M0 0 C15.84 0 31.68 0 48 0 C48 15.84 48 31.68 48 48 C32.16 48 16.32 48 0 48 C0 32.16 0 16.32 0 0 Z " fill="#18171D" transform="translate(0,0)"/>
<path d="M0 0 C2.31 0 4.62 0 7 0 C7.33 7.26 7.66 14.52 8 22 C10.31 14.74 12.62 7.48 15 0 C15.99 0 16.98 0 18 0 C16.55993623 8.94129144 13.79194029 17.41105391 11 26 C8.69 26 6.38 26 4 26 C3.67 19.07 3.34 12.14 3 5 C1.44229944 10.03970238 1.44229944 10.03970238 -0.11083984 15.08081055 C-1.26372941 18.7904133 -2.4875703 22.41681374 -4 26 C-4.99 26 -5.98 26 -7 26 C-5.93635358 19.54814473 -4.28649646 13.63380417 -1.90234375 7.54296875 C-1.01328746 5.03744649 -0.45552109 2.61572422 0 0 Z " fill="#F2F2F2" transform="translate(15,11)"/>
<path d="M0 0 C1.65 0 3.3 0 5 0 C5 8.58 5 17.16 5 26 C4.67 26 4.34 26 4 26 C3.67 19.07 3.34 12.14 3 5 C1.44229944 10.03970238 1.44229944 10.03970238 -0.11083984 15.08081055 C-1.26372941 18.7904133 -2.4875703 22.41681374 -4 26 C-4.99 26 -5.98 26 -7 26 C-5.93635358 19.54814473 -4.28649646 13.63380417 -1.90234375 7.54296875 C-1.01328746 5.03744649 -0.45552109 2.61572422 0 0 Z " fill="#E2E2E3" transform="translate(15,11)"/>
<path d="M0 0 C0.99 0 1.98 0 3 0 C3 8.58 3 17.16 3 26 C2.01 26 1.02 26 0 26 C0 17.42 0 8.84 0 0 Z " fill="#EEEEEF" transform="translate(34,11)"/>
</svg>
